<svg xmlns="http://www.w3.org/2000/svg" width="680" height="430" viewBox="0 0 680 430" role="img" aria-labelledby="title description">
<title id="title">焊接残余应力与疲劳设计寿命 · 主题示意，非原文图</title>
<desc id="description">目前依据为已核对的题名。图中并列展示残余应力松弛、物理寿命模型、机器学习辅助阈值确定和疲劳设计寿命四个研究主题，不表示实际计算流程或验证结果。</desc>
<rect width="680" height="430" fill="#ffffff"/>
<g font-family="Microsoft YaHei, PingFang SC, sans-serif">
<text x="24" y="32" fill="#153e64" font-size="20" font-weight="700">主题示意 · 非原文图</text>
<text x="24" y="61" fill="#576575" font-size="17">依据：Crossref 题名</text>
<defs><marker id="arrow" viewBox="0 0 10 10" refX="9" refY="5" markerWidth="7" markerHeight="7" orient="auto-start-reverse"><path d="M0 0 L10 5 L0 10 Z" fill="#527995"/></marker></defs>
<rect x="24" y="84" width="286" height="124" rx="7" fill="#edf5fa" stroke="#c5d6e1"/>
<text x="40" y="113" fill="#577186" font-size="16">研究因素</text>
<text x="40" y="150" fill="#153e64" font-size="22" font-weight="700">焊接残余应力</text>
<text x="40" y="182" fill="#45545d" font-size="16">关注残余应力松弛</text>
<rect x="370" y="84" width="286" height="124" rx="7" fill="#edf5fa" stroke="#c5d6e1"/>
<text x="386" y="113" fill="#577186" font-size="16">建模主题</text>
<text x="386" y="150" fill="#153e64" font-size="22" font-weight="700">基于物理的寿命模型</text>
<text x="386" y="182" fill="#45545d" font-size="16">题名明确的建模方向</text>
<rect x="24" y="260" width="286" height="124" rx="7" fill="#edf6f3" stroke="#c5d6e1"/>
<text x="40" y="289" fill="#577186" font-size="16">辅助方法</text>
<text x="40" y="326" fill="#153e64" font-size="22" font-weight="700">机器学习辅助阈值</text>
<text x="40" y="358" fill="#45545d" font-size="16">残余应力阈值的确定</text>
<rect x="370" y="260" width="286" height="124" rx="7" fill="#edf6f3" stroke="#c5d6e1"/>
<text x="386" y="289" fill="#577186" font-size="16">研究目标</text>
<text x="386" y="326" fill="#153e64" font-size="22" font-weight="700">疲劳设计寿命</text>
<text x="386" y="358" fill="#45545d" font-size="16">具体算法与结果待核实</text>
<text x="24" y="416" fill="#61717b" font-size="14">本站依据公开资料整理 · 不包含原文实验图或性能曲线</text></g></svg>