<svg xmlns="http://www.w3.org/2000/svg" viewBox="0 0 880 1214" role="img" aria-labelledby="title desc"><title id="title">拟议路线：以有限复核预算控制热点漏检</title><desc id="desc">对应第一条研究路线；节点中的样本与评价均为建议设计，尚无实测改善结果。</desc><defs><marker id="arrow" markerWidth="8" markerHeight="8" refX="7" refY="4" orient="auto"><path d="M0,0 L8,4 L0,8" fill="none" stroke="#6d879b" stroke-width="1.4"/></marker></defs><rect width="880" height="1214" fill="#f7fafc" rx="12"/><text x="32" y="32" fill="#0f766e" font-family="Microsoft YaHei, sans-serif" font-size="14">拟开展的验证路线</text><path d="M440.0,190 V221.0 H440.0 V252" fill="none" stroke="#6d879b" stroke-width="1.6" marker-end="url(#arrow)"/><text x="440.0" y="239.0" text-anchor="middle" font-family="Microsoft YaHei,sans-serif" font-size="12" fill="#526b7e" stroke="#f7fafc" stroke-width="4" paint-order="stroke">构建独立评估</text><path d="M440.0,380 V411.0 H440.0 V442" fill="none" stroke="#6d879b" stroke-width="1.6" marker-end="url(#arrow)"/><text x="440.0" y="429.0" text-anchor="middle" font-family="Microsoft YaHei,sans-serif" font-size="12" fill="#526b7e" stroke="#f7fafc" stroke-width="4" paint-order="stroke">训练监督</text><path d="M440.0,570 V601.0 H440.0 V632" fill="none" stroke="#6d879b" stroke-width="1.6" marker-end="url(#arrow)"/><text x="440.0" y="619.0" text-anchor="middle" font-family="Microsoft YaHei,sans-serif" font-size="12" fill="#526b7e" stroke="#f7fafc" stroke-width="4" paint-order="stroke">预测与集成</text><path d="M440.0,760 V791.0 H440.0 V822" fill="none" stroke="#6d879b" stroke-width="1.6" marker-end="url(#arrow)"/><text x="440.0" y="809.0" text-anchor="middle" font-family="Microsoft YaHei,sans-serif" font-size="12" fill="#526b7e" stroke="#f7fafc" stroke-width="4" paint-order="stroke">预算约束拒判</text><path d="M440.0,950 V981.0 H440.0 V1012" fill="none" stroke="#6d879b" stroke-width="1.6" marker-end="url(#arrow)"/><text x="440.0" y="999.0" text-anchor="middle" font-family="Microsoft YaHei,sans-serif" font-size="12" fill="#526b7e" stroke="#f7fafc" stroke-width="4" paint-order="stroke">统计安全收益</text><path d="M645.0,1076.0 H848 V506.0 H645.0" fill="none" stroke="#6d879b" stroke-width="1.6" stroke-dasharray="5 4" marker-end="url(#arrow)"/><rect x="235.0" y="62" width="410" height="128" rx="7" fill="#fff" stroke="#d5e2e9"/><rect x="235.0" y="62" width="4" height="128" rx="2" fill="#0f766e"/><text x="252.0" y="91" font-family="Microsoft YaHei,sans-serif" font-size="18" font-weight="700" fill="#0f766e">公开形貌与新增CP场</text><text x="252.0" y="122" font-family="Microsoft YaHei,sans-serif" font-size="14" fill="#3b5264">建议120孔隙各8配置；形貌可公开获取，CP场需请求或重</text><text x="252.0" y="143" font-family="Microsoft YaHei,sans-serif" font-size="14" fill="#3b5264">算。</text><rect x="235.0" y="252" width="410" height="128" rx="7" fill="#fff" stroke="#d5e2e9"/><rect x="235.0" y="252" width="4" height="128" rx="2" fill="#0f766e"/><text x="252.0" y="281" font-family="Microsoft YaHei,sans-serif" font-size="18" font-weight="700" fill="#0f766e">孔隙隔离与标签敏感性</text><text x="252.0" y="312" font-family="Microsoft YaHei,sans-serif" font-size="14" fill="#3b5264">按孔隙60/20/20划分，检查试件来源及非局部平均域影响</text><text x="252.0" y="333" font-family="Microsoft YaHei,sans-serif" font-size="14" fill="#3b5264">。</text><rect x="235.0" y="442" width="410" height="128" rx="7" fill="#fff" stroke="#d5e2e9"/><rect x="235.0" y="442" width="4" height="128" rx="2" fill="#0f766e"/><text x="252.0" y="471" font-family="Microsoft YaHei,sans-serif" font-size="18" font-weight="700" fill="#0f766e">非负回归与热点排序</text><text x="252.0" y="502" font-family="Microsoft YaHei,sans-serif" font-size="14" fill="#3b5264">组合尺度变换回归、高响应排序损失，保留全局热点竞争</text><text x="252.0" y="523" font-family="Microsoft YaHei,sans-serif" font-size="14" fill="#3b5264">。</text><rect x="235.0" y="632" width="410" height="128" rx="7" fill="#fff" stroke="#d5e2e9"/><rect x="235.0" y="632" width="4" height="128" rx="2" fill="#0f766e"/><text x="252.0" y="661" font-family="Microsoft YaHei,sans-serif" font-size="18" font-weight="700" fill="#0f766e">分歧估计与置信校准</text><text x="252.0" y="692" font-family="Microsoft YaHei,sans-serif" font-size="14" fill="#3b5264">依据多模型分歧和邻孔—远场响应差距建立拒判机制。</text><rect x="235.0" y="822" width="410" height="128" rx="7" fill="#fff" stroke="#d5e2e9"/><rect x="235.0" y="822" width="4" height="128" rx="2" fill="#0f766e"/><text x="252.0" y="851" font-family="Microsoft YaHei,sans-serif" font-size="18" font-weight="700" fill="#0f766e">三类筛查与CP复核</text><text x="252.0" y="882" font-family="Microsoft YaHei,sans-serif" font-size="14" fill="#3b5264">区分低风险、待复核、高风险；建议固定20%复核预算。</text><rect x="235.0" y="1012" width="410" height="128" rx="7" fill="#fff" stroke="#d5e2e9"/><rect x="235.0" y="1012" width="4" height="128" rx="2" fill="#0f766e"/><text x="252.0" y="1041" font-family="Microsoft YaHei,sans-serif" font-size="18" font-weight="700" fill="#0f766e">安全与效率联合评价</text><text x="252.0" y="1072" font-family="Microsoft YaHei,sans-serif" font-size="14" fill="#3b5264">比较漏检、误报、Top-k召回、校准和全流程计算时间。</text></svg>